# xmcd
#
# Track frame offsets:
#	150
#	5344
#	23865
#	40546
#	58448
#	72258
#	92697
#	110815
#	126050
#
# Disc length: 1750 seconds
#
# Revision: 1
# Processed by: cddbd v1.5.2PL0 Copyright (c) Steve Scherf et al.
# Submitted via: audiograbber 1.83.01
#
DISCID=7506d409
DTITLE=Pierre Clavreux - L'Arbre De Pierre "Gwez Maen"
DYEAR=1900
DGENRE=Celtic
TTITLE0=Barra
TTITLE1=Au Mor Douar
TTITLE2=Dir Ha Tan
TTITLE3=Ar Prinz Bihan
TTITLE4=Ki Du
TTITLE5=Marv Eo Ma Mestrez
TTITLE6=Tuchenn Mickael
TTITLE7=Em Gau
TTITLE8=Barra
EXTD=
EXTT0=
EXTT1=
EXTT2=
EXTT3=
EXTT4=
EXTT5=
EXTT6=
EXTT7=
EXTT8=
PLAYORDER=
